# xmcd CD database file
#
# Track frame offsets:
#	150
#	22671
#	44369
#	79604
#	106619
#	139128
#	168272
#
# Disc length: 2493 seconds
#
# Revision: 0
# Processed by: cddbd v1.5.1PL0 Copyright (c) Steve Scherf et al.
# Submitted via: CDex 1.51
#
DISCID=4409bb07
DTITLE=dolç tab jazz project - in fusió
DYEAR=2005
DGENRE=Jazz
TTITLE0=hemeroscopeion
TTITLE1=caravan
TTITLE2=sentir-te
TTITLE3=estranya sensació
TTITLE4=bésame mucho
TTITLE5=la fiesta
TTITLE6=la Muixeranga
EXTD=YEAR: 2005
EXTT0=
EXTT1=
EXTT2=
EXTT3=
EXTT4=
EXTT5=
EXTT6=
PLAYORDER=
